<svg version="1.1" id="Layer_1" xmlns="http://www.w3.org/2000/svg" xmlns:xlink="http://www.w3.org/1999/xlink" x="0px" y="0px"
	 width="100%" viewBox="0 0 1080 1080" enable-background="new 0 0 1080 1080" xml:space="preserve">
<path fill="#FFFFFF" opacity="1.000000" stroke="none" 
	d="
M608.000000,1081.000000 
	C405.356659,1081.000000 203.213318,1081.000000 1.034993,1081.000000 
	C1.034993,721.064880 1.034993,361.129730 1.034993,1.097306 
	C360.893585,1.097306 720.787170,1.097306 1080.840332,1.097306 
	C1080.840332,360.999939 1080.840332,720.999939 1080.840332,1081.000000 
	C923.462646,1081.000000 765.981323,1081.000000 608.000000,1081.000000 
M849.660522,655.407532 
	C849.252563,653.367065 849.232727,651.145813 848.379028,649.312988 
	C833.208557,616.743408 818.123840,584.130981 802.532288,551.763062 
	C799.337036,545.129822 799.847961,540.212769 803.882263,534.315002 
	C827.661865,499.550964 851.163574,464.596771 874.743225,429.696106 
	C875.577026,428.462067 876.247681,427.117920 876.994385,425.825073 
	C875.350525,425.759216 874.543579,426.269043 873.968140,426.969086 
	C841.603333,466.343079 809.251953,505.728119 776.916504,545.126282 
	C771.791321,551.370911 771.828125,551.564087 775.779358,558.748169 
	C789.009827,582.803833 802.238159,606.860718 815.431946,630.936462 
	C816.184265,632.309387 816.621460,633.855042 817.531616,636.139160 
	C805.229431,636.139160 793.784973,635.981628 782.348450,636.215271 
	C777.652832,636.311157 774.609558,634.672974 772.122070,630.664307 
	C763.960266,617.511047 755.540222,604.517456 747.152649,591.505554 
	C746.032166,589.767334 744.527771,588.276611 742.835754,586.229187 
	C723.751282,610.118774 705.121155,633.439758 686.490967,656.760742 
	C686.888672,657.097900 687.286438,657.435120 687.684143,657.772339 
	C703.780518,643.216858 719.876892,628.661438 736.271118,613.836670 
	C743.287537,626.396057 749.904053,638.132446 756.402649,649.933716 
	C758.509521,653.759705 761.268372,655.925781 765.895691,655.904907 
	C793.552795,655.780396 821.210632,655.803345 849.660522,655.407532 
M422.869537,578.521362 
	C422.875153,575.523132 422.784119,572.520874 422.908936,569.527588 
	C423.096771,565.022400 420.967743,563.268127 416.560699,563.348938 
	C408.401855,563.498474 400.237122,563.308228 392.077087,563.421692 
	C386.172272,563.503723 385.433014,564.323853 385.498962,570.141113 
	C385.583923,577.635132 385.701111,585.130005 385.934784,592.620422 
	C386.056274,596.515137 384.693909,598.464539 380.471161,598.409424 
	C368.981995,598.259521 357.488586,598.260986 345.999207,598.399597 
	C342.028473,598.447449 340.795898,596.784607 340.896515,592.986572 
	C341.108215,584.996765 340.894165,576.996338 341.043945,569.003906 
	C341.113892,565.271790 339.707977,563.369751 335.857635,563.386230 
	C326.863434,563.424805 317.868866,563.409485 308.874512,563.389587 
	C305.343536,563.381775 303.806213,565.043518 303.813446,568.616699 
	C303.865814,594.433899 303.854645,620.251282 303.810089,646.068481 
	C303.804382,649.366760 305.028687,650.941589 308.526672,650.893982 
	C317.519440,650.771484 326.516205,650.765442 335.508820,650.892944 
	C339.603180,650.950928 341.151337,649.207581 341.052307,645.169617 
	C340.864563,637.511963 341.119995,629.842590 340.893951,622.186951 
	C340.768677,617.945862 342.308899,616.071716 346.645538,616.119446 
	C357.637360,616.240601 368.631836,616.213623 379.624420,616.132751 
	C384.002838,616.100525 386.067810,618.009399 386.016968,622.436890 
	C385.930939,629.931213 386.289612,637.443481 385.880310,644.916443 
	C385.613770,649.782532 387.751831,651.081360 391.999939,651.014465 
	C399.993164,650.888611 407.988556,650.886169 415.983154,650.860107 
	C422.066956,650.840271 422.866913,650.096619 422.870728,643.974121 
	C422.884033,622.487488 422.870483,601.000916 422.869537,578.521362 
M652.367249,460.218933 
	C666.930725,489.759186 681.415466,519.338745 696.129333,548.803955 
	C698.817200,554.186462 698.627441,558.595703 695.209595,563.628296 
	C668.835632,602.461792 642.641479,641.417419 616.414124,680.350342 
	C615.777954,681.294678 615.401917,682.414185 614.904541,683.452026 
	C615.256348,683.696228 615.608154,683.940491 615.959961,684.184753 
	C616.781128,683.177429 617.590759,682.160461 618.425049,681.164124 
	C652.321533,640.683899 686.161194,600.155823 720.206482,559.801147 
	C723.752686,555.597717 723.678955,552.383057 721.107178,547.832275 
	C708.010315,524.657288 695.196106,501.322449 682.299744,478.034271 
	C681.453979,476.506927 680.748230,474.902039 679.173096,471.696350 
	C693.299194,471.696350 706.101929,471.849274 718.897278,471.608612 
	C723.053345,471.530396 725.734924,472.828735 727.916260,476.369019 
	C735.424622,488.555176 743.138733,500.614716 750.806335,512.702332 
	C751.819153,514.298950 753.016357,515.778564 754.608154,517.974548 
	C775.730591,492.089783 796.300110,466.882599 816.869629,441.675415 
	C816.494385,441.321503 816.119141,440.967590 815.743958,440.613678 
	C797.432983,457.179413 779.122009,473.745117 760.323730,490.751740 
	C758.771790,488.424805 757.369385,486.611023 756.272217,484.628357 
	C750.875000,474.874908 745.387390,465.164825 740.290100,455.255066 
	C737.928528,450.663971 734.783508,448.869537 729.615234,448.906311 
	C703.626465,449.091278 677.635620,448.978455 651.645508,448.988403 
	C650.527405,448.988831 649.409363,449.169373 647.267761,449.354462 
	C649.029297,453.107605 650.538757,456.323517 652.367249,460.218933 
M220.727509,627.187927 
	C217.428131,624.795898 213.356476,622.997437 210.975632,619.899536 
	C204.115646,610.973633 206.072418,597.816040 214.651978,590.694885 
	C223.019104,583.750183 241.066589,584.797058 248.575836,592.174866 
	C250.678757,594.241028 254.144440,595.823975 257.072357,595.979004 
	C266.205048,596.462646 275.379669,596.189697 284.537750,596.144287 
	C290.351562,596.115479 290.592102,595.591492 288.445679,589.983704 
	C284.023712,578.430969 275.454681,571.066589 264.132477,567.189453 
	C242.003601,559.611816 219.517227,559.880005 197.443512,567.038208 
	C179.094009,572.988708 168.598511,589.426392 169.630981,608.121826 
	C170.824219,629.728333 181.766174,643.994446 201.345200,648.905701 
	C207.767197,650.516541 214.359451,651.992249 220.936111,652.335083 
	C236.928818,653.168762 252.991379,653.030151 267.926605,646.091980 
	C279.279144,640.818237 287.110931,632.340271 289.877869,619.436584 
	C288.385559,619.003174 287.445618,618.494568 286.505096,618.493469 
	C277.018860,618.482788 267.531891,618.505920 258.046448,618.624695 
	C253.141037,618.686157 249.283554,620.893005 245.679779,624.244568 
	C243.620575,626.159607 240.549164,627.812744 237.821152,628.007202 
	C232.426682,628.391724 226.954178,627.681458 220.727509,627.187927 
M533.057861,580.393188 
	C530.552490,576.463074 527.962708,572.583496 525.567444,568.587463 
	C523.494873,565.129700 520.611816,563.368469 516.567566,563.388184 
	C508.903870,563.425598 501.239838,563.409973 493.575989,563.395142 
	C489.768890,563.387817 487.102264,564.949402 484.990448,568.281311 
	C468.595367,594.148132 452.059967,619.925964 435.581757,645.740051 
	C434.794891,646.972778 434.137909,648.288391 433.193512,649.969299 
	C434.739197,650.337219 435.812256,650.797913 436.893219,650.817261 
	C445.213074,650.966431 453.535950,650.962952 461.854980,651.141418 
	C468.505371,651.284119 473.075348,648.250366 475.387390,642.169739 
	C476.851990,638.317810 479.243896,636.807861 483.303589,636.823608 
	C496.629669,636.875305 509.957794,636.777588 523.282776,636.578674 
	C530.026672,636.477966 534.866394,638.980469 537.279114,645.526428 
	C538.818481,649.702942 541.941101,651.151489 546.293579,651.042297 
	C554.785645,650.829102 563.285034,650.919495 571.780945,650.837708 
	C573.350830,650.822571 574.918579,650.588440 577.723633,650.350525 
	C562.559692,626.604370 548.001038,603.806030 533.057861,580.393188 
M640.500732,563.390686 
	C621.007202,563.390625 601.513611,563.390137 582.020081,563.391052 
	C577.521606,563.391235 573.023071,563.388977 568.524597,563.402039 
	C564.639832,563.413330 562.715881,565.148621 562.953430,569.255615 
	C563.164795,572.908752 563.129578,576.589233 562.967896,580.247314 
	C562.791077,584.247559 564.330566,586.027588 568.508545,585.909851 
	C575.667114,585.708069 582.835510,585.846313 589.999817,585.857239 
	C596.780029,585.867554 597.093079,586.143738 597.089478,592.851318 
	C597.080261,610.012268 597.010742,627.173157 597.007874,644.334106 
	C597.006958,649.957764 598.089844,650.993103 603.762512,650.981018 
	C611.759338,650.963989 619.756042,650.906921 627.752747,650.850891 
	C634.101257,650.806396 634.456238,650.500916 634.458313,643.999329 
	C634.463745,626.838501 634.389771,609.677673 634.382568,592.516846 
	C634.380005,586.397400 634.904785,585.882080 640.852478,585.860535 
	C647.850098,585.835205 654.854797,585.663086 661.843018,585.920044 
	C666.701233,586.098694 668.469849,584.149536 668.067505,579.402771 
	C667.773254,575.930298 667.897400,572.403992 668.079163,568.914429 
	C668.290833,564.852905 666.472229,563.069214 662.490784,563.137878 
	C655.494812,563.258423 648.497620,563.310242 640.500732,563.390686 
z"/>
<path fill="#3478F4" opacity="1.000000" stroke="none" 
	d="
M849.264404,655.592163 
	C821.210632,655.803345 793.552795,655.780396 765.895691,655.904907 
	C761.268372,655.925781 758.509521,653.759705 756.402649,649.933716 
	C749.904053,638.132446 743.287537,626.396057 736.271118,613.836670 
	C719.876892,628.661438 703.780518,643.216858 687.684143,657.772339 
	C687.286438,657.435120 686.888672,657.097900 686.490967,656.760742 
	C705.121155,633.439758 723.751282,610.118774 742.835754,586.229187 
	C744.527771,588.276611 746.032166,589.767334 747.152649,591.505554 
	C755.540222,604.517456 763.960266,617.511047 772.122070,630.664307 
	C774.609558,634.672974 777.652832,636.311157 782.348450,636.215271 
	C793.784973,635.981628 805.229431,636.139160 817.531616,636.139160 
	C816.621460,633.855042 816.184265,632.309387 815.431946,630.936462 
	C802.238159,606.860718 789.009827,582.803833 775.779358,558.748169 
	C771.828125,551.564087 771.791321,551.370911 776.916504,545.126282 
	C809.251953,505.728119 841.603333,466.343079 873.968140,426.969086 
	C874.543579,426.269043 875.350525,425.759216 876.994385,425.825073 
	C876.247681,427.117920 875.577026,428.462067 874.743225,429.696106 
	C851.163574,464.596771 827.661865,499.550964 803.882263,534.315002 
	C799.847961,540.212769 799.337036,545.129822 802.532288,551.763062 
	C818.123840,584.130981 833.208557,616.743408 848.379028,649.312988 
	C849.232727,651.145813 849.252563,653.367065 849.264404,655.592163 
z"/>
<path fill="#3377F4" opacity="1.000000" stroke="none" 
	d="
M422.868347,579.017822 
	C422.870483,601.000916 422.884033,622.487488 422.870728,643.974121 
	C422.866913,650.096619 422.066956,650.840271 415.983154,650.860107 
	C407.988556,650.886169 399.993164,650.888611 391.999939,651.014465 
	C387.751831,651.081360 385.613770,649.782532 385.880310,644.916443 
	C386.289612,637.443481 385.930939,629.931213 386.016968,622.436890 
	C386.067810,618.009399 384.002838,616.100525 379.624420,616.132751 
	C368.631836,616.213623 357.637360,616.240601 346.645538,616.119446 
	C342.308899,616.071716 340.768677,617.945862 340.893951,622.186951 
	C341.119995,629.842590 340.864563,637.511963 341.052307,645.169617 
	C341.151337,649.207581 339.603180,650.950928 335.508820,650.892944 
	C326.516205,650.765442 317.519440,650.771484 308.526672,650.893982 
	C305.028687,650.941589 303.804382,649.366760 303.810089,646.068481 
	C303.854645,620.251282 303.865814,594.433899 303.813446,568.616699 
	C303.806213,565.043518 305.343536,563.381775 308.874512,563.389587 
	C317.868866,563.409485 326.863434,563.424805 335.857635,563.386230 
	C339.707977,563.369751 341.113892,565.271790 341.043945,569.003906 
	C340.894165,576.996338 341.108215,584.996765 340.896515,592.986572 
	C340.795898,596.784607 342.028473,598.447449 345.999207,598.399597 
	C357.488586,598.260986 368.981995,598.259521 380.471161,598.409424 
	C384.693909,598.464539 386.056274,596.515137 385.934784,592.620422 
	C385.701111,585.130005 385.583923,577.635132 385.498962,570.141113 
	C385.433014,564.323853 386.172272,563.503723 392.077087,563.421692 
	C400.237122,563.308228 408.401855,563.498474 416.560699,563.348938 
	C420.967743,563.268127 423.096771,565.022400 422.908936,569.527588 
	C422.784119,572.520874 422.875153,575.523132 422.868347,579.017822 
z"/>
<path fill="#3478F4" opacity="1.000000" stroke="none" 
	d="
M652.207703,459.879181 
	C650.538757,456.323517 649.029297,453.107605 647.267761,449.354462 
	C649.409363,449.169373 650.527405,448.988831 651.645508,448.988403 
	C677.635620,448.978455 703.626465,449.091278 729.615234,448.906311 
	C734.783508,448.869537 737.928528,450.663971 740.290100,455.255066 
	C745.387390,465.164825 750.875000,474.874908 756.272217,484.628357 
	C757.369385,486.611023 758.771790,488.424805 760.323730,490.751740 
	C779.122009,473.745117 797.432983,457.179413 815.743958,440.613678 
	C816.119141,440.967590 816.494385,441.321503 816.869629,441.675415 
	C796.300110,466.882599 775.730591,492.089783 754.608154,517.974548 
	C753.016357,515.778564 751.819153,514.298950 750.806335,512.702332 
	C743.138733,500.614716 735.424622,488.555176 727.916260,476.369019 
	C725.734924,472.828735 723.053345,471.530396 718.897278,471.608612 
	C706.101929,471.849274 693.299194,471.696350 679.173096,471.696350 
	C680.748230,474.902039 681.453979,476.506927 682.299744,478.034271 
	C695.196106,501.322449 708.010315,524.657288 721.107178,547.832275 
	C723.678955,552.383057 723.752686,555.597717 720.206482,559.801147 
	C686.161194,600.155823 652.321533,640.683899 618.425049,681.164124 
	C617.590759,682.160461 616.781128,683.177429 615.959961,684.184753 
	C615.608154,683.940491 615.256348,683.696228 614.904541,683.452026 
	C615.401917,682.414185 615.777954,681.294678 616.414124,680.350342 
	C642.641479,641.417419 668.835632,602.461792 695.209595,563.628296 
	C698.627441,558.595703 698.817200,554.186462 696.129333,548.803955 
	C681.415466,519.338745 666.930725,489.759186 652.207703,459.879181 
z"/>
<path fill="#3377F4" opacity="1.000000" stroke="none" 
	d="
M221.120728,627.305847 
	C226.954178,627.681458 232.426682,628.391724 237.821152,628.007202 
	C240.549164,627.812744 243.620575,626.159607 245.679779,624.244568 
	C249.283554,620.893005 253.141037,618.686157 258.046448,618.624695 
	C267.531891,618.505920 277.018860,618.482788 286.505096,618.493469 
	C287.445618,618.494568 288.385559,619.003174 289.877869,619.436584 
	C287.110931,632.340271 279.279144,640.818237 267.926605,646.091980 
	C252.991379,653.030151 236.928818,653.168762 220.936111,652.335083 
	C214.359451,651.992249 207.767197,650.516541 201.345200,648.905701 
	C181.766174,643.994446 170.824219,629.728333 169.630981,608.121826 
	C168.598511,589.426392 179.094009,572.988708 197.443512,567.038208 
	C219.517227,559.880005 242.003601,559.611816 264.132477,567.189453 
	C275.454681,571.066589 284.023712,578.430969 288.445679,589.983704 
	C290.592102,595.591492 290.351562,596.115479 284.537750,596.144287 
	C275.379669,596.189697 266.205048,596.462646 257.072357,595.979004 
	C254.144440,595.823975 250.678757,594.241028 248.575836,592.174866 
	C241.066589,584.797058 223.019104,583.750183 214.651978,590.694885 
	C206.072418,597.816040 204.115646,610.973633 210.975632,619.899536 
	C213.356476,622.997437 217.428131,624.795898 221.120728,627.305847 
z"/>
<path fill="#3377F4" opacity="1.000000" stroke="none" 
	d="
M533.250122,580.700439 
	C548.001038,603.806030 562.559692,626.604370 577.723633,650.350525 
	C574.918579,650.588440 573.350830,650.822571 571.780945,650.837708 
	C563.285034,650.919495 554.785645,650.829102 546.293579,651.042297 
	C541.941101,651.151489 538.818481,649.702942 537.279114,645.526428 
	C534.866394,638.980469 530.026672,636.477966 523.282776,636.578674 
	C509.957794,636.777588 496.629669,636.875305 483.303589,636.823608 
	C479.243896,636.807861 476.851990,638.317810 475.387390,642.169739 
	C473.075348,648.250366 468.505371,651.284119 461.854980,651.141418 
	C453.535950,650.962952 445.213074,650.966431 436.893219,650.817261 
	C435.812256,650.797913 434.739197,650.337219 433.193512,649.969299 
	C434.137909,648.288391 434.794891,646.972778 435.581757,645.740051 
	C452.059967,619.925964 468.595367,594.148132 484.990448,568.281311 
	C487.102264,564.949402 489.768890,563.387817 493.575989,563.395142 
	C501.239838,563.409973 508.903870,563.425598 516.567566,563.388184 
	C520.611816,563.368469 523.494873,565.129700 525.567444,568.587463 
	C527.962708,572.583496 530.552490,576.463074 533.250122,580.700439 
M512.773621,602.738647 
	C510.406799,598.767456 508.039978,594.796204 505.122437,589.900940 
	C500.408600,598.163452 496.079773,605.751160 491.498352,613.781616 
	C501.033203,613.781616 509.449341,613.781616 518.809998,613.781616 
	C516.706482,609.948120 514.907227,606.669128 512.773621,602.738647 
z"/>
<path fill="#3377F4" opacity="1.000000" stroke="none" 
	d="
M641.000854,563.390747 
	C648.497620,563.310242 655.494812,563.258423 662.490784,563.137878 
	C666.472229,563.069214 668.290833,564.852905 668.079163,568.914429 
	C667.897400,572.403992 667.773254,575.930298 668.067505,579.402771 
	C668.469849,584.149536 666.701233,586.098694 661.843018,585.920044 
	C654.854797,585.663086 647.850098,585.835205 640.852478,585.860535 
	C634.904785,585.882080 634.380005,586.397400 634.382568,592.516846 
	C634.389771,609.677673 634.463745,626.838501 634.458313,643.999329 
	C634.456238,650.500916 634.101257,650.806396 627.752747,650.850891 
	C619.756042,650.906921 611.759338,650.963989 603.762512,650.981018 
	C598.089844,650.993103 597.006958,649.957764 597.007874,644.334106 
	C597.010742,627.173157 597.080261,610.012268 597.089478,592.851318 
	C597.093079,586.143738 596.780029,585.867554 589.999817,585.857239 
	C582.835510,585.846313 575.667114,585.708069 568.508545,585.909851 
	C564.330566,586.027588 562.791077,584.247559 562.967896,580.247314 
	C563.129578,576.589233 563.164795,572.908752 562.953430,569.255615 
	C562.715881,565.148621 564.639832,563.413330 568.524597,563.402039 
	C573.023071,563.388977 577.521606,563.391235 582.020081,563.391052 
	C601.513611,563.390137 621.007202,563.390625 641.000854,563.390747 
z"/>
<path fill="#FBFCFF" opacity="1.000000" stroke="none" 
	d="
M512.940796,603.064453 
	C514.907227,606.669128 516.706482,609.948120 518.809998,613.781616 
	C509.449341,613.781616 501.033203,613.781616 491.498352,613.781616 
	C496.079773,605.751160 500.408600,598.163452 505.122437,589.900940 
	C508.039978,594.796204 510.406799,598.767456 512.940796,603.064453 
z"/>
</svg>