<?xml version="1.0" encoding="UTF-8" standalone="no" ?>
<!DOCTYPE svg PUBLIC "-//W3C//DTD SVG 1.1//EN" "http://www.w3.org/Graphics/SVG/1.1/DTD/svg11.dtd">
<svg xmlns="http://www.w3.org/2000/svg" xmlns:xlink="http://www.w3.org/1999/xlink" version="1.1" width="1080" height="1080" viewBox="0 0 1080 1080" xml:space="preserve">
<desc>Created with Fabric.js 5.2.4</desc>
<defs>
</defs>
<g transform="matrix(1 0 0 1 540 540)" id="0e87c18c-f991-4a0b-9002-eb66c038bebf"  >
</g>
<g transform="matrix(1 0 0 1 540 540)" id="31cf61a0-186a-4f9d-a6a8-2cafe805a03d"  >
<rect style="stroke: none; stroke-width: 1; stroke-dasharray: none; stroke-linecap: butt; stroke-dashoffset: 0; stroke-linejoin: miter; stroke-miterlimit: 4; fill: rgb(255,255,255); fill-rule: nonzero; opacity: 1; visibility: hidden;" vector-effect="non-scaling-stroke"  x="-540" y="-540" rx="0" ry="0" width="1080" height="1080" />
</g>
<g transform="matrix(1 0 0 1 797.14 526.79)"  >
<path style="stroke: none; stroke-width: 1; stroke-dasharray: none; stroke-linecap: butt; stroke-dashoffset: 0; stroke-linejoin: miter; stroke-miterlimit: 4; fill: rgb(52,120,244); fill-rule: nonzero; opacity: 1;" vector-effect="non-scaling-stroke"  transform=" translate(-781.74, -541.8)" d="M 849.264404 655.592163 C 821.210632 655.803345 793.552795 655.780396 765.895691 655.904907 C 761.268372 655.925781 758.509521 653.759705 756.402649 649.933716 C 749.904053 638.132446 743.287537 626.396057 736.271118 613.83667 C 719.876892 628.661438 703.780518 643.216858 687.684143 657.772339 C 687.286438 657.43512 686.888672 657.0979 686.490967 656.760742 C 705.121155 633.439758 723.751282 610.118774 742.835754 586.229187 C 744.527771 588.276611 746.032166 589.767334 747.152649 591.505554 C 755.540222 604.517456 763.960266 617.511047 772.12207 630.664307 C 774.609558 634.672974 777.652832 636.311157 782.34845 636.215271 C 793.784973 635.981628 805.229431 636.13916 817.531616 636.13916 C 816.62146 633.855042 816.184265 632.309387 815.431946 630.936462 C 802.238159 606.860718 789.009827 582.803833 775.779358 558.748169 C 771.828125 551.564087 771.791321 551.370911 776.916504 545.126282 C 809.251953 505.728119 841.603333 466.343079 873.96814 426.969086 C 874.543579 426.269043 875.350525 425.759216 876.994385 425.825073 C 876.247681 427.11792 875.577026 428.462067 874.743225 429.696106 C 851.163574 464.596771 827.661865 499.550964 803.882263 534.315002 C 799.847961 540.212769 799.337036 545.129822 802.532288 551.763062 C 818.12384 584.130981 833.208557 616.743408 848.379028 649.312988 C 849.232727 651.145813 849.252563 653.367065 849.264404 655.592163 z" stroke-linecap="round" />
</g>
<g transform="matrix(1 0 0 1 378.77 592.18)"  >
<path style="stroke: none; stroke-width: 1; stroke-dasharray: none; stroke-linecap: butt; stroke-dashoffset: 0; stroke-linejoin: miter; stroke-miterlimit: 4; fill: rgb(57,120,234); fill-rule: nonzero; opacity: 1;" vector-effect="non-scaling-stroke"  transform=" translate(-363.37, -607.18)" d="M 422.868347 579.017822 C 422.870483 601.000916 422.884033 622.487488 422.870728 643.974121 C 422.866913 650.096619 422.066956 650.840271 415.983154 650.860107 C 407.988556 650.886169 399.993164 650.888611 391.999939 651.014465 C 387.751831 651.08136 385.61377 649.782532 385.88031 644.916443 C 386.289612 637.443481 385.930939 629.931213 386.016968 622.43689 C 386.06781 618.009399 384.002838 616.100525 379.62442 616.132751 C 368.631836 616.213623 357.63736 616.240601 346.645538 616.119446 C 342.308899 616.071716 340.768677 617.945862 340.893951 622.186951 C 341.119995 629.84259 340.864563 637.511963 341.052307 645.169617 C 341.151337 649.207581 339.60318 650.950928 335.50882 650.892944 C 326.516205 650.765442 317.51944 650.771484 308.526672 650.893982 C 305.028687 650.941589 303.804382 649.36676 303.810089 646.068481 C 303.854645 620.251282 303.865814 594.433899 303.813446 568.616699 C 303.806213 565.043518 305.343536 563.381775 308.874512 563.389587 C 317.868866 563.409485 326.863434 563.424805 335.857635 563.38623 C 339.707977 563.369751 341.113892 565.27179 341.043945 569.003906 C 340.894165 576.996338 341.108215 584.996765 340.896515 592.986572 C 340.795898 596.784607 342.028473 598.447449 345.999207 598.399597 C 357.488586 598.260986 368.981995 598.259521 380.471161 598.409424 C 384.693909 598.464539 386.056274 596.515137 385.934784 592.620422 C 385.701111 585.130005 385.583923 577.635132 385.498962 570.141113 C 385.433014 564.323853 386.172272 563.503723 392.077087 563.421692 C 400.237122 563.308228 408.401855 563.498474 416.560699 563.348938 C 420.967743 563.268127 423.096771 565.0224 422.908936 569.527588 C 422.784119 572.520874 422.875153 575.523132 422.868347 579.017822 z" stroke-linecap="round" />
</g>
<g transform="matrix(1 0 0 1 731.29 547.4)"  >
<path style="stroke: none; stroke-width: 1; stroke-dasharray: none; stroke-linecap: butt; stroke-dashoffset: 0; stroke-linejoin: miter; stroke-miterlimit: 4; fill: rgb(52,120,244); fill-rule: nonzero; opacity: 1;" vector-effect="non-scaling-stroke"  transform=" translate(-715.89, -562.4)" d="M 652.207703 459.879181 C 650.538757 456.323517 649.029297 453.107605 647.267761 449.354462 C 649.409363 449.169373 650.527405 448.988831 651.645508 448.988403 C 677.63562 448.978455 703.626465 449.091278 729.615234 448.906311 C 734.783508 448.869537 737.928528 450.663971 740.2901 455.255066 C 745.38739 465.164825 750.875 474.874908 756.272217 484.628357 C 757.369385 486.611023 758.77179 488.424805 760.32373 490.75174 C 779.122009 473.745117 797.432983 457.179413 815.743958 440.613678 C 816.119141 440.96759 816.494385 441.321503 816.869629 441.675415 C 796.30011 466.882599 775.730591 492.089783 754.608154 517.974548 C 753.016357 515.778564 751.819153 514.29895 750.806335 512.702332 C 743.138733 500.614716 735.424622 488.555176 727.91626 476.369019 C 725.734924 472.828735 723.053345 471.530396 718.897278 471.608612 C 706.101929 471.849274 693.299194 471.69635 679.173096 471.69635 C 680.74823 474.902039 681.453979 476.506927 682.299744 478.034271 C 695.196106 501.322449 708.010315 524.657288 721.107178 547.832275 C 723.678955 552.383057 723.752686 555.597717 720.206482 559.801147 C 686.161194 600.155823 652.321533 640.683899 618.425049 681.164124 C 617.590759 682.160461 616.781128 683.177429 615.959961 684.184753 C 615.608154 683.940491 615.256348 683.696228 614.904541 683.452026 C 615.401917 682.414185 615.777954 681.294678 616.414124 680.350342 C 642.641479 641.417419 668.835632 602.461792 695.209595 563.628296 C 698.627441 558.595703 698.8172 554.186462 696.129333 548.803955 C 681.415466 519.338745 666.930725 489.759186 652.207703 459.879181 z" stroke-linecap="round" />
</g>
<g transform="matrix(1 0 0 1 247.77 592.13)"  >
<path style="stroke: none; stroke-width: 1; stroke-dasharray: none; stroke-linecap: butt; stroke-dashoffset: 0; stroke-linejoin: miter; stroke-miterlimit: 4; fill: rgb(51,119,244); fill-rule: nonzero; opacity: 1;" vector-effect="non-scaling-stroke"  transform=" translate(-229.72, -607.14)" d="M 221.120728 627.305847 C 226.954178 627.681458 232.426682 628.391724 237.821152 628.007202 C 240.549164 627.812744 243.620575 626.159607 245.679779 624.244568 C 249.283554 620.893005 253.141037 618.686157 258.046448 618.624695 C 267.531891 618.50592 277.01886 618.482788 286.505096 618.493469 C 287.445618 618.494568 288.385559 619.003174 289.877869 619.436584 C 287.110931 632.340271 279.279144 640.818237 267.926605 646.09198 C 252.991379 653.030151 236.928818 653.168762 220.936111 652.335083 C 214.359451 651.992249 207.767197 650.516541 201.3452 648.905701 C 181.766174 643.994446 170.824219 629.728333 169.630981 608.121826 C 168.598511 589.426392 179.094009 572.988708 197.443512 567.038208 C 219.517227 559.880005 242.003601 559.611816 264.132477 567.189453 C 275.454681 571.066589 284.023712 578.430969 288.445679 589.983704 C 290.592102 595.591492 290.351562 596.115479 284.53775 596.144287 C 275.379669 596.189697 266.205048 596.462646 257.072357 595.979004 C 254.14444 595.823975 250.678757 594.241028 248.575836 592.174866 C 241.066589 584.797058 223.019104 583.750183 214.651978 590.694885 C 206.072418 597.81604 204.115646 610.973633 210.975632 619.899536 C 213.356476 622.997437 217.428131 624.795898 221.120728 627.305847 z" stroke-linecap="round" />
</g>
<g transform="matrix(1 0 0 1 520.87 592.26)"  >
<path style="stroke: none; stroke-width: 1; stroke-dasharray: none; stroke-linecap: butt; stroke-dashoffset: 0; stroke-linejoin: miter; stroke-miterlimit: 4; fill: rgb(51,119,244); fill-rule: nonzero; opacity: 1;" vector-effect="non-scaling-stroke"  transform=" translate(-505.46, -607.27)" d="M 533.250122 580.700439 C 548.001038 603.80603 562.559692 626.60437 577.723633 650.350525 C 574.918579 650.58844 573.35083 650.822571 571.780945 650.837708 C 563.285034 650.919495 554.785645 650.829102 546.293579 651.042297 C 541.941101 651.151489 538.818481 649.702942 537.279114 645.526428 C 534.866394 638.980469 530.026672 636.477966 523.282776 636.578674 C 509.957794 636.777588 496.629669 636.875305 483.303589 636.823608 C 479.243896 636.807861 476.85199 638.31781 475.38739 642.169739 C 473.075348 648.250366 468.505371 651.284119 461.85498 651.141418 C 453.53595 650.962952 445.213074 650.966431 436.893219 650.817261 C 435.812256 650.797913 434.739197 650.337219 433.193512 649.969299 C 434.137909 648.288391 434.794891 646.972778 435.581757 645.740051 C 452.059967 619.925964 468.595367 594.148132 484.990448 568.281311 C 487.102264 564.949402 489.76889 563.387817 493.575989 563.395142 C 501.239838 563.409973 508.90387 563.425598 516.567566 563.388184 C 520.611816 563.368469 523.494873 565.1297 525.567444 568.587463 C 527.962708 572.583496 530.55249 576.463074 533.250122 580.700439 M 512.773621 602.738647 C 510.406799 598.767456 508.039978 594.796204 505.122437 589.90094 C 500.4086 598.163452 496.079773 605.75116 491.498352 613.781616 C 501.033203 613.781616 509.449341 613.781616 518.809998 613.781616 C 516.706482 609.94812 514.907227 606.669128 512.773621 602.738647 z" stroke-linecap="round" />
</g>
<g transform="matrix(1 0 0 1 630.93 592.05)"  >
<path style="stroke: none; stroke-width: 1; stroke-dasharray: none; stroke-linecap: butt; stroke-dashoffset: 0; stroke-linejoin: miter; stroke-miterlimit: 4; fill: rgb(51,119,244); fill-rule: nonzero; opacity: 1;" vector-effect="non-scaling-stroke"  transform=" translate(-615.53, -607.06)" d="M 641.000854 563.390747 C 648.49762 563.310242 655.494812 563.258423 662.490784 563.137878 C 666.472229 563.069214 668.290833 564.852905 668.079163 568.914429 C 667.8974 572.403992 667.773254 575.930298 668.067505 579.402771 C 668.469849 584.149536 666.701233 586.098694 661.843018 585.920044 C 654.854797 585.663086 647.850098 585.835205 640.852478 585.860535 C 634.904785 585.88208 634.380005 586.3974 634.382568 592.516846 C 634.389771 609.677673 634.463745 626.838501 634.458313 643.999329 C 634.456238 650.500916 634.101257 650.806396 627.752747 650.850891 C 619.756042 650.906921 611.759338 650.963989 603.762512 650.981018 C 598.089844 650.993103 597.006958 649.957764 597.007874 644.334106 C 597.010742 627.173157 597.080261 610.012268 597.089478 592.851318 C 597.093079 586.143738 596.780029 585.867554 589.999817 585.857239 C 582.83551 585.846313 575.667114 585.708069 568.508545 585.909851 C 564.330566 586.027588 562.791077 584.247559 562.967896 580.247314 C 563.129578 576.589233 563.164795 572.908752 562.95343 569.255615 C 562.715881 565.148621 564.639832 563.41333 568.524597 563.402039 C 573.023071 563.388977 577.521606 563.391235 582.020081 563.391052 C 601.513611 563.390137 621.007202 563.390625 641.000854 563.390747 z" stroke-linecap="round" />
</g>
<g transform="matrix(1 0 0 1 520.56 586.83)"  >
<path style="stroke: none; stroke-width: 1; stroke-dasharray: none; stroke-linecap: butt; stroke-dashoffset: 0; stroke-linejoin: miter; stroke-miterlimit: 4; fill: rgb(251,252,255); fill-opacity: 0; fill-rule: nonzero; opacity: 1;" vector-effect="non-scaling-stroke"  transform=" translate(-505.15, -601.84)" d="M 512.940796 603.064453 C 514.907227 606.669128 516.706482 609.94812 518.809998 613.781616 C 509.449341 613.781616 501.033203 613.781616 491.498352 613.781616 C 496.079773 605.75116 500.4086 598.163452 505.122437 589.90094 C 508.039978 594.796204 510.406799 598.767456 512.940796 603.064453 z" stroke-linecap="round" />
</g>
</svg>